<svg id="Layer_1" data-name="Layer 1" xmlns="http://www.w3.org/2000/svg" viewBox="0 0 511.91 511.97"><defs><style>.cls-1{fill:#f5eeca;}</style></defs><path class="cls-1" d="M230.4,247.47a42.67,42.67,0,1,0-42.67-42.67A42.68,42.68,0,0,0,230.4,247.47Zm0-68.27a25.6,25.6,0,1,1-25.6,25.6A25.6,25.6,0,0,1,230.4,179.2Z" transform="translate(-0.04 -0.03)"/><path class="cls-1" d="M324.27,256a25.6,25.6,0,1,0-25.6-25.6A25.6,25.6,0,0,0,324.27,256Zm0-34.13a8.53,8.53,0,1,1-8.54,8.53A8.53,8.53,0,0,1,324.27,221.87Z" transform="translate(-0.04 -0.03)"/><path class="cls-1" d="M162.13,298.67a25.6,25.6,0,1,0-25.6-25.6A25.6,25.6,0,0,0,162.13,298.67Zm0-34.14a8.54,8.54,0,1,1-8.53,8.54A8.54,8.54,0,0,1,162.13,264.53Z" transform="translate(-0.04 -0.03)"/><path class="cls-1" d="M213.33,315.73a51.2,51.2,0,1,0,51.2-51.2A51.2,51.2,0,0,0,213.33,315.73Zm85.34,0a34.14,34.14,0,1,1-34.14-34.13A34.15,34.15,0,0,1,298.67,315.73Z" transform="translate(-0.04 -0.03)"/><path class="cls-1" d="M34.13,290.13A33.58,33.58,0,0,0,52.05,285a15.19,15.19,0,0,1,8.67-2.86c10.94.58,27.18,1.79,44.82,4.27a148.37,148.37,0,0,0,4.88,18.43C95.68,316.4,82,325.61,73.22,331.31a12.52,12.52,0,0,1-7.42,1.49,34.62,34.62,0,0,0-24.33,8.34,34.12,34.12,0,0,0,39.35,55.38A33.52,33.52,0,0,0,94,383a15.17,15.17,0,0,1,6-6.71c8.36-4.27,29.36-13.48,41.17-18.49A150.75,150.75,0,0,0,154.45,371c-7.29,18.14-15,33.64-19.15,41.71a11.89,11.89,0,0,1-5.59,4.92,34.15,34.15,0,1,0,49.49,29.53,15.38,15.38,0,0,1,1.86-8.94c6-9.21,15.17-22.7,26.15-36.75a150.62,150.62,0,0,0,18.17,5c1.19,10.45,4,35.84,4.45,45.62a12,12,0,0,1-2.31,7,34.23,34.23,0,0,0,22.76,52.52A35.38,35.38,0,0,0,256,512a34,34,0,0,0,34.13-34.13,33.58,33.58,0,0,0-5.24-18.17,14.5,14.5,0,0,1-2.71-8.36c.57-10.95,1.76-27.17,4.27-44.82a150.34,150.34,0,0,0,18.4-5c12.09,15.42,21.64,29.78,26.53,37.42a11.87,11.87,0,0,1,1.46,7.31,34.25,34.25,0,0,0,34.29,36.07,33.33,33.33,0,0,0,11.69-2.1,34.14,34.14,0,0,0,17.69-49.09,33.64,33.64,0,0,0-13.36-13,15.33,15.33,0,0,1-6.83-6.09c-5-9.77-12.07-24.46-18.77-41a150.5,150.5,0,0,0,13.36-13.25c20.48,8.88,35.63,15.78,41.72,19a11.94,11.94,0,0,1,5,5.65,34.19,34.19,0,1,0,47.58-45,33.78,33.78,0,0,0-18.5-4.52,14.11,14.11,0,0,1-8.41-1.83c-13.07-8.46-25.44-17.23-36.62-26.18a148.77,148.77,0,0,0,4.8-18.36c19.37-2.75,36.56-3.85,45.61-4.27a11.87,11.87,0,0,1,7.05,2.39,34.13,34.13,0,1,0,18.76-62.68A33.58,33.58,0,0,0,460,227a15.78,15.78,0,0,1-8.67,2.86c-10.94-.58-27.18-1.78-44.81-4.27a148.06,148.06,0,0,0-4.88-18.44c14.72-11.53,28.36-20.75,37.19-26.46a12.35,12.35,0,0,1,7.39-1.48,34.34,34.34,0,0,0,24.32-8.35A34.13,34.13,0,1,0,418,129a15.19,15.19,0,0,1-6,6.71c-8.35,4.27-29.35,13.48-41.16,18.49A154.49,154.49,0,0,0,357.55,141c7.29-18.14,15-33.64,19.15-41.71a12,12,0,0,1,5.59-4.92,34.13,34.13,0,1,0-44.92-47.57,33.57,33.57,0,0,0-4.57,18,15.38,15.38,0,0,1-1.86,8.94c-6,9.21-15.16,22.7-26.15,36.74a152.49,152.49,0,0,0-18.17-5c-1.19-10.49-4-35.95-4.45-45.67A11.79,11.79,0,0,1,284.46,53a34.13,34.13,0,1,0-62.59-18.88,33.7,33.7,0,0,0,5.23,18.15,14.64,14.64,0,0,1,2.72,8.41c-.49,9.33-3,32.14-4.57,44.86a147.48,147.48,0,0,0-18.08,5C195.1,95.16,185.54,80.75,180.64,73.1a12,12,0,0,1-1.44-7.29,34.13,34.13,0,1,0-63.67,15.12,33.73,33.73,0,0,0,13.38,13,15.2,15.2,0,0,1,6.83,6.08c5,9.77,12.07,24.47,18.77,41.05a150.28,150.28,0,0,0-13.35,13.24c-9.64-4.18-33-14.4-41.73-19a11.94,11.94,0,0,1-5-5.65A34.21,34.21,0,1,0,65.33,179.2,14.14,14.14,0,0,1,73.72,181a449.33,449.33,0,0,1,36.62,26.18,149.38,149.38,0,0,0-4.8,18.37c-19.34,2.74-36.54,3.84-45.6,4.27a12,12,0,0,1-7-2.39,34.13,34.13,0,1,0-18.76,62.67ZM166.74,428.89a31.89,31.89,0,0,0-4.61,18.77,16.69,16.69,0,0,1-2.28,9,17.07,17.07,0,1,1-22.46-23.82,28.45,28.45,0,0,0,13.07-12.38c4.75-9.15,11.35-22.67,17.92-38.4a153.52,153.52,0,0,0,22.3,12.88C180.68,408,172.37,420.26,166.74,428.89Zm194.35-9.14a31.91,31.91,0,0,0,14,13.38,16.64,16.64,0,0,1,6.64,6.46,17.07,17.07,0,1,1-31.83,7.56,28.51,28.51,0,0,0-4.18-17.51c-4.59-7.16-13.27-20.24-24.31-34.65A153,153,0,0,0,343.64,382C350,397.24,356.43,410.6,361.09,419.75Zm89.27-172.89a31.69,31.69,0,0,0,18.56-5.4,17.52,17.52,0,0,1,22,3.49,17.07,17.07,0,0,1-22.47,25.31,28.75,28.75,0,0,0-17.25-5.12c-8.49.38-24.14,1.37-42.13,3.72.35-4.27.54-8.53.54-12.86s-.19-8.61-.54-12.87c16.28,2.12,31.06,3.19,41.31,3.73ZM345.26,83.11a31.89,31.89,0,0,0,4.61-18.77,16.69,16.69,0,0,1,2.28-9,17.07,17.07,0,1,1,22.46,23.82,28.52,28.52,0,0,0-13.06,12.38c-4.75,9.15-11.35,22.67-17.88,38.4a153.52,153.52,0,0,0-22.3-12.88c9.95-13,18.26-25.32,23.89-33.95ZM150.91,92.25a31.87,31.87,0,0,0-14-13.37,16.76,16.76,0,0,1-6.65-6.47,17.07,17.07,0,1,1,31.83-7.51,28.57,28.57,0,0,0,4.18,17.5c5.55,8.67,13.95,21.13,24.32,34.67A154,154,0,0,0,168.35,130c-6.31-15.22-12.77-28.58-17.44-37.73ZM83,166.69a30.56,30.56,0,0,0-18.44-4.56,16.5,16.5,0,0,1-9.21-2.25,17.07,17.07,0,1,1,23.82-22.49,28.58,28.58,0,0,0,12.39,13.14c8.81,4.59,30.57,14.15,42.76,19.45a17.07,17.07,0,0,0,19.58-4.48,136.17,136.17,0,0,1,74.74-43.19,17.08,17.08,0,0,0,13.72-14.79c1.47-13,4-36.15,4.53-45.94a31.21,31.21,0,0,0-5.39-18.45,16.76,16.76,0,0,1-2.56-9,17.07,17.07,0,1,1,31.29,9.51,28.35,28.35,0,0,0-5.12,17.07c.45,9.87,3,33.57,4.54,46.83a17.05,17.05,0,0,0,13.71,14.76,136.06,136.06,0,0,1,74.71,43.17,17.1,17.1,0,0,0,19.63,4.46c11.94-5.2,33.28-14.61,42.1-19.08A31.74,31.74,0,0,0,433,137a16.82,16.82,0,0,1,6.57-6.73,17.07,17.07,0,0,1,19.84,27.58,17.54,17.54,0,0,1-12.29,4.26,28.74,28.74,0,0,0-17.58,4.16c-9.16,5.9-23.29,15.43-38.52,27.37a17.14,17.14,0,0,0-5.53,19,136.88,136.88,0,0,1,0,86.68,17.16,17.16,0,0,0,5.53,19c11.7,9.19,24.49,18.27,38,27a30.8,30.8,0,0,0,18.42,4.59,16.25,16.25,0,0,1,9.21,2.25,17.07,17.07,0,1,1-23.82,22.49,28.55,28.55,0,0,0-12.39-13.13c-8.72-4.55-30.52-14.14-42.75-19.45a17.07,17.07,0,0,0-19.62,4.48,135.58,135.58,0,0,1-80.56,44.22,8.6,8.6,0,0,0-7.13,7.33c-3.19,20.57-4.63,39.82-5.28,52.36a31.11,31.11,0,0,0,5.36,18.42,16.68,16.68,0,0,1,2.6,9,17,17,0,1,1-31.25-9.48,28.65,28.65,0,0,0,5.12-17.14c-.46-9.94-3-33.58-4.54-46.78a17.07,17.07,0,0,0-13.71-14.74A136.13,136.13,0,0,1,154,346.55a17.07,17.07,0,0,0-19.65-4.47c-11.94,5.21-33.28,14.61-42.1,19.08A31.76,31.76,0,0,0,79,375a16.88,16.88,0,0,1-6.57,6.73,17.07,17.07,0,0,1-19.86-27.6,17.47,17.47,0,0,1,12.26-4.26,28.93,28.93,0,0,0,17.57-4.17c9.16-5.89,23.27-15.42,38.53-27.37a17.14,17.14,0,0,0,5.53-19,137,137,0,0,1,0-86.66,17.15,17.15,0,0,0-5.52-19c-11.63-9.17-24.42-18.25-38-27ZM17.28,253a17.17,17.17,0,0,1,26.26-11.3,28.5,28.5,0,0,0,17.24,5.12c10.24-.46,25.25-1.5,42.13-3.71-.35,4.27-.54,8.53-.54,12.85s.2,8.61.55,12.87c-16.28-2.12-31.06-3.19-41.31-3.73a32.05,32.05,0,0,0-18.56,5.4,17.52,17.52,0,0,1-21.95-3.45,17,17,0,0,1-3.79-14Z" transform="translate(-0.04 -0.03)"/></svg>